<svg xmlns="http://www.w3.org/2000/svg" width="24" height="18" viewBox="331 19 24 18"><path d="m352.055 21.368-2.794 2.794-5.346 5.346-.938.938-9.032-9.031-1.5-1.5-.689-.69a1.483 1.483 0 0 1 .699-.224A1.206 1.206 0 0 1 332.5 19h21a1.38 1.38 0 0 1 .603.148 2.122 2.122 0 0 1 .113.059l-.755.755-1.406 1.406ZM340 28.53l.317.317.113.113 1.03 1.031 1.5 1.5.063-.062.016.015 1.406-1.406 1.485-1.484 8.258 8.258a1.481 1.481 0 0 1-.653.187 1.223 1.223 0 0 1-.035.001h-21a1.37 1.37 0 0 1-.616-.157 2.13 2.13 0 0 1-.128-.069L340 28.53Zm14.736 7.77-8.276-8.277 6.125-6.125 2.17-2.17c.142.229.245.483.245.772v15a1.366 1.366 0 0 1-.176.653 2.062 2.062 0 0 1-.088.147Zm-22.821-15.855L339.47 28l-8.244 8.244a1.484 1.484 0 0 1-.225-.699A1.205 1.205 0 0 1 331 35.5v-15c0-.277.095-.522.226-.744l.689.69Z" fill="rgba(185, 148, 3, 1)" fill-rule="evenodd" data-name="Shape 7"/></svg>