<svg xmlns="http://www.w3.org/2000/svg" width="109" height="74.001" viewBox="251 60 109 74.001"><path d="M332.75 134h-57.906C261.675 134 251 123.458 251 110.455c0-10.68 7.248-19.597 17.117-22.478-.008-.155-.025-.306-.041-.458a5.473 5.473 0 0 1-.045-.61c0-9.288 7.625-16.818 17.031-16.818a17.043 17.043 0 0 1 5.357.932 27.273 27.273 0 0 1 19.39-10.91 27.58 27.58 0 0 1 2.503-.113 27.15 27.15 0 0 1 26.515 20.908C350.941 83.643 360 94.3 360 107.091a27.081 27.081 0 0 1-27.25 26.91Zm-20.438-26.909V86.909h-13.625v20.182h-10.431l17.244 17.028 17.244-17.028h-10.432Z" fill="rgba(245, 197, 6, 1)" fill-rule="evenodd" data-name="Shape 2"/></svg>