<svg xmlns="http://www.w3.org/2000/svg" width="83.016" height="83.016"><path d="m28.012 83.016 13.495-13.08 13.497 13.08V71.92L41.507 58.839 28.012 71.921v11.095Zm0-83.016 13.495 13.08L55.004 0v11.095L41.507 24.176l-13.495-13.08V0ZM0 55.004l13.08-13.496L0 28.012h11.095l13.081 13.496-13.08 13.496H0Zm16.84 0 13.08-13.496-13.08-13.496h11.095l13.08 13.496-13.08 13.496H16.839Zm66.176 0-13.08-13.496 13.08-13.496H71.92L58.84 41.508l13.08 13.496h11.096Zm-16.84 0-13.08-13.496 13.08-13.496H55.081L42 41.508l13.081 13.496h11.095ZM28.012 16.839l13.495 13.08 13.497-13.08v11.096l-13.497 13.08-13.495-13.08V16.839Zm0 49.338 13.495-13.08 13.497 13.08V55.08L41.507 42 28.012 55.081v11.096Z" fill="rgba(245, 197, 6, 1)" fill-rule="evenodd" data-name="Shape 8 copy 3"/></svg>