<svg xmlns="http://www.w3.org/2000/svg" width="19.019" height="18.977" viewBox="195 19 19.019 18.977"><path d="M208.849 23.894a2.478 2.478 0 0 0 .128.138 2.437 2.437 0 0 0 1.263.67c.72.14 1.491-.047 2.077-.558a2.481 2.481 0 0 0 .12-.112l1.4-1.397a4.83 4.83 0 0 1 .182 1.248 4.888 4.888 0 0 1-4.894 4.884 4.852 4.852 0 0 1-1.266-.186.097.097 0 0 0-.015.022.1.1 0 0 1-.017.026l-8.65 8.632a2.437 2.437 0 0 1-1.263.671 2.448 2.448 0 0 1-2.077-.558 2.481 2.481 0 0 1-.12-.113 2.438 2.438 0 0 1-.128-3.315 2.478 2.478 0 0 1 .128-.138l8.65-8.633a.091.091 0 0 1 .022-.015c.01-.005.019-.01.027-.017a4.826 4.826 0 0 1-.184-1.26A4.888 4.888 0 0 1 209.125 19c.436 0 .85.075 1.252.181l-1.4 1.397a2.438 2.438 0 0 0-.128 3.316ZM197.504 34.87a.611.611 0 1 0 .611.61.611.611 0 0 0-.611-.61Z" fill="rgba(185, 148, 3, 1)" fill-rule="evenodd" data-name="Shape 6"/></svg>