<svg xmlns="http://www.w3.org/2000/svg" width="15" height="14.999" viewBox="663 286 15 14.999"><path d="M666.26 296.347v-5.699a13.654 13.654 0 0 1 1.65-1.246c.134-.09.268-.177.4-.266a10.169 10.169 0 0 0 2.366-1.957v12.637c-.771-.942-1.769-1.558-2.767-2.225a13.673 13.673 0 0 1-1.648-1.244Zm-3.26-5.689h2.915v5.647H663v-5.647Zm9.37 3.319v-.958H678v.958h-5.63Zm.039 1.029 5.075 2.428-.414.864-5.077-2.429.416-.863Zm-.224-3.83 5.075-2.428.416.864-5.077 2.428-.414-.863Zm3.574 9.23-.519.593-3.489-3.041.52-.594 3.488 3.041Zm-4.008-11.365L675.24 286l.52.593-3.49 3.041-.518-.593Z" fill="rgba(245, 197, 6, 1)" fill-rule="evenodd" data-name="Shape 9"/></svg>